# xmcd
#
# Track frame offsets:
#	150
#	13010
#	25010
#	36292
#	50232
#	59195
#	70057
#	82125
#	94032
#	107325
#	121680
#	129940
#	141942
#	153097
#
# Disc length: 2202 seconds
#
# Revision: 1
# Processed by: cddbd v1.5.1PL0 Copyright (c) Steve Scherf et al.
# Submitted via: audiograbber 1.81.03
#
DISCID=b808980e
DTITLE=Sandy Posey - She's Got You
DYEAR=1900
DGENRE=
TTITLE0=She's Got You
TTITLE1=Young Love
TTITLE2=I Will Follow Him
TTITLE3=Since I Meet You Baby
TTITLE4=Born A Woman
TTITLE5=So Sad
TTITLE6=Be My Baby
TTITLE7=Everybody's Somebody's Fool
TTITLE8=Don't Break The Heart That Loves You
TTITLE9=Put Your Hand In Tha Hand
TTITLE10=He's So Fine
TTITLE11=Then He Kiss Me
TTITLE12=Put A Little Love In Your Heart
TTITLE13=Devoted To You
EXTD=
EXTT0=
EXTT1=
EXTT2=
EXTT3=
EXTT4=
EXTT5=
EXTT6=
EXTT7=
EXTT8=
EXTT9=
EXTT10=
EXTT11=
EXTT12=
EXTT13=
PLAYORDER=
